<svg xmlns="http://www.w3.org/2000/svg" version="1.1" xmlns:xlink="http://www.w3.org/1999/xlink" xmlns:svgjs="http://svgjs.dev/svgjs" width="2000" height="2000" viewBox="0 0 2000 2000"><g transform="matrix(1,0,0,1,0,0)"><svg viewBox="0 0 280 280" data-background-color="#ffffff" preserveAspectRatio="xMidYMid meet" height="2000" width="2000" xmlns="http://www.w3.org/2000/svg" xmlns:xlink="http://www.w3.org/1999/xlink"><g id="tight-bounds" transform="matrix(1,0,0,1,0,0)"><svg viewBox="0 0 280 280" height="280" width="280"><g><svg viewBox="0 0 280 280" height="280" width="280"><g><svg viewBox="0 0 280 280" height="280" width="280"><g id="textblocktransform"><svg viewBox="0 0 280 280" height="280" width="280" id="textblock"><g><svg viewBox="0 0 280 280" height="280" width="280"><g transform="matrix(1,0,0,1,90.50252531694167,92.04777545438387)"><svg viewBox="0 0 98.99494936611666 95.90444909123227" height="95.90444909123227" width="98.99494936611666"><g><svg xmlns="http://www.w3.org/2000/svg" xmlns:xlink="http://www.w3.org/1999/xlink" version="1.1" x="0" y="0" viewBox="0 0.9990001916885376 64 62.00199890136719" enable-background="new 0 0 64 64" xml:space="preserve" height="95.90444909123227" width="98.99494936611666" class="icon-o-0" data-fill-palette-color="accent" id="o-0"><g fill="#6b7280" data-fill-palette-color="accent"><path d="M63.16 37.921l-0.032-0.033c-0.005-0.005-0.01-0.01-0.015-0.015l-6.396-6.572c-0.002-0.002-0.004-0.002-0.006-0.004-0.092-0.093-0.2-0.168-0.322-0.22-0.122-0.052-0.253-0.077-0.383-0.078-0.002 0-0.004-0.001-0.006-0.001h-7.994V18.867l4.445 2.973c0.008 0.005 0.018 0.007 0.025 0.012 0.006 0.004 0.009 0.011 0.016 0.015 0.05 0.03 0.104 0.046 0.156 0.066 0.028 0.011 0.055 0.028 0.084 0.036 0.09 0.026 0.182 0.04 0.273 0.04 0.083 0 0.165-0.011 0.245-0.031 0.027-0.007 0.053-0.021 0.08-0.03 0.051-0.018 0.102-0.034 0.149-0.06 0.031-0.016 0.058-0.04 0.086-0.059 0.04-0.027 0.081-0.053 0.117-0.086 0.028-0.026 0.052-0.059 0.077-0.089 0.025-0.03 0.055-0.055 0.077-0.089 0.004-0.005 0.004-0.011 0.007-0.017 0.006-0.009 0.014-0.015 0.02-0.024l5.999-10c0.027-0.045 0.031-0.095 0.051-0.143 0.025-0.064 0.056-0.125 0.067-0.191 0.012-0.063 0.008-0.124 0.007-0.187 0-0.065 0.003-0.128-0.01-0.192-0.013-0.062-0.04-0.118-0.064-0.177-0.024-0.06-0.045-0.119-0.081-0.173-0.036-0.055-0.087-0.099-0.135-0.146-0.036-0.037-0.061-0.082-0.104-0.113L48.599 2.191c-0.015-0.011-0.032-0.012-0.047-0.021-0.055-0.036-0.116-0.058-0.179-0.083-0.064-0.025-0.125-0.053-0.192-0.064-0.017-0.003-0.029-0.014-0.047-0.016l-8.014-1c-0.023-0.003-0.044 0.006-0.066 0.005s-0.041-0.013-0.063-0.013H23.988c-0.02 0-0.036 0.01-0.056 0.011-0.016 0.001-0.03-0.005-0.046-0.003l-8.014 1c-0.018 0.002-0.031 0.013-0.049 0.017-0.065 0.011-0.125 0.038-0.188 0.063-0.063 0.025-0.126 0.047-0.182 0.083-0.016 0.01-0.032 0.011-0.047 0.021L4.412 10.2c-0.043 0.031-0.067 0.077-0.104 0.113-0.048 0.048-0.099 0.092-0.135 0.147-0.036 0.054-0.057 0.113-0.081 0.173-0.024 0.059-0.052 0.114-0.064 0.177-0.013 0.064-0.01 0.127-0.01 0.192-0.001 0.063-0.005 0.125 0.007 0.188 0.012 0.066 0.041 0.127 0.067 0.19 0.02 0.047 0.023 0.098 0.051 0.143l5.999 10c0.006 0.009 0.014 0.016 0.02 0.024 0.004 0.005 0.004 0.011 0.007 0.017 0.022 0.034 0.052 0.06 0.077 0.089 0.026 0.03 0.049 0.062 0.077 0.088 0.036 0.034 0.077 0.059 0.117 0.086 0.029 0.02 0.056 0.043 0.086 0.059 0.048 0.026 0.099 0.042 0.149 0.06 0.027 0.009 0.053 0.023 0.08 0.03 0.08 0.02 0.162 0.031 0.245 0.031 0.092 0 0.184-0.014 0.273-0.04 0.029-0.008 0.056-0.025 0.084-0.036 0.053-0.02 0.106-0.037 0.156-0.066 0.007-0.004 0.01-0.011 0.016-0.015 0.009-0.005 0.018-0.006 0.025-0.012l4.445-2.973v12.132H8C7.997 30.999 7.995 31 7.992 31c-0.118 0.001-0.235 0.027-0.348 0.07-0.135 0.052-0.257 0.126-0.355 0.227C7.287 31.3 7.285 31.3 7.283 31.302l-6.387 6.563c-0.012 0.012-0.023 0.023-0.035 0.035l-0.02 0.021c-0.005 0.005-0.006 0.012-0.011 0.017C0.319 38.476 0 39.199 0 39.999v20.002c0 1.654 1.346 3 3 3h58c1.654 0 3-1.346 3-3V39.999c0-0.795-0.316-1.514-0.822-2.051C63.17 37.939 63.168 37.929 63.16 37.921zM18.001 33.999V16.996c0-0.032-0.015-0.059-0.018-0.089-0.007-0.067-0.021-0.13-0.04-0.196-0.021-0.067-0.044-0.127-0.077-0.188-0.015-0.027-0.017-0.057-0.034-0.083-0.018-0.027-0.046-0.041-0.066-0.065-0.044-0.055-0.091-0.102-0.146-0.146-0.05-0.04-0.099-0.075-0.154-0.104-0.056-0.03-0.111-0.051-0.172-0.07-0.067-0.021-0.132-0.034-0.202-0.041-0.031-0.003-0.059-0.018-0.091-0.018-0.031 0-0.058 0.015-0.088 0.018-0.068 0.006-0.133 0.02-0.199 0.041-0.065 0.02-0.126 0.044-0.186 0.076-0.026 0.015-0.057 0.017-0.083 0.035l-5.128 3.429-4.988-8.315L16.377 3.96l6.69-0.835c0.557 4.432 4.341 7.875 8.922 7.875 4.582 0 8.367-3.444 8.923-7.878L47.63 3.96l10.048 7.318-4.988 8.315-5.128-3.429c-0.026-0.017-0.056-0.02-0.083-0.034-0.06-0.033-0.121-0.057-0.188-0.077-0.065-0.02-0.129-0.034-0.195-0.04-0.031-0.003-0.058-0.018-0.09-0.018-0.033 0-0.061 0.016-0.093 0.019-0.069 0.006-0.134 0.02-0.199 0.04-0.062 0.019-0.118 0.041-0.173 0.071-0.056 0.029-0.104 0.064-0.154 0.104-0.055 0.044-0.102 0.091-0.146 0.145-0.021 0.025-0.049 0.039-0.066 0.066-0.018 0.026-0.02 0.056-0.034 0.083-0.033 0.06-0.057 0.121-0.077 0.187-0.02 0.066-0.033 0.129-0.04 0.196-0.002 0.031-0.018 0.058-0.018 0.089v17.003H18.001zM25.069 2.999h13.84c-0.487 3.387-3.401 6-6.92 6S25.557 6.386 25.069 2.999zM16.001 33.999h-1.998c-0.553 0-1 0.447-1 1s0.447 1 1 1h35.994c0.553 0 1-0.447 1-1s-0.447-1-1-1h-1.991v-1h7.571l3.895 4H4.529l3.893-4h7.579V33.999zM9 60.001h46v1H9V60.001zM62 60.001c0 0.552-0.448 1-1 1h-4v-2c0-0.553-0.447-1-1-1H8c-0.553 0-1 0.447-1 1v2H3c-0.552 0-1-0.448-1-1V39.999c0-0.269 0.109-0.511 0.282-0.69l0.025-0.026C2.487 39.108 2.73 38.999 3 38.999h58c0.272 0 0.518 0.11 0.698 0.287l0.016 0.017C61.89 39.482 62 39.728 62 39.999V60.001z" fill="#000000" data-fill-palette-color="accent"></path><path d="M8.03 43.999H8.02c-0.552 0-0.994 0.447-0.994 1s0.452 1 1.005 1c0.552 0 1-0.447 1-1S8.582 43.999 8.03 43.999z" fill="#000000" data-fill-palette-color="accent"></path><path d="M12.03 43.999H12.02c-0.552 0-0.994 0.447-0.994 1s0.452 1 1.005 1c0.552 0 1-0.447 1-1S12.582 43.999 12.03 43.999z" fill="#000000" data-fill-palette-color="accent"></path><path d="M56.03 43.999H56.02c-0.552 0-0.994 0.447-0.994 1s0.452 1 1.005 1c0.552 0 1-0.447 1-1S56.582 43.999 56.03 43.999z" fill="#000000" data-fill-palette-color="accent"></path><path d="M52.03 43.999H52.02c-0.552 0-0.994 0.447-0.994 1s0.452 1 1.005 1c0.552 0 1-0.447 1-1S52.582 43.999 52.03 43.999z" fill="#000000" data-fill-palette-color="accent"></path><path d="M42 41.999H22c-0.553 0-1 0.447-1 1v4c0 0.553 0.447 1 1 1h20c0.553 0 1-0.447 1-1v-4C43 42.446 42.553 41.999 42 41.999zM41 45.999H23v-2h18V45.999z" fill="#000000" data-fill-palette-color="accent"></path></g></svg></g></svg></g><g><path d="M41.955 190.296L41.619 190.785 37.362 191.914 35.859 186.868 35.282 185.23 21.527 189.853 13.256 193.042 11.29 187.46 19.261 184.981 33.363 179.781 32.786 178.143 30.764 173.184 31.086 172.658 35.357 171.566ZM46.356 236.483L51.193 241.417 51.074 241.998 47.563 244.664 35.756 231.676 42.13 226.286 56.459 212.854 68.381 225.967 68.262 226.547 64.717 229.176 60.382 224.081 56.963 220.38 51.892 224.815 55.068 228.441 58.231 231.728 58.149 232.275 54.638 234.941 51.398 231.184 48.361 227.903 46.112 229.894 43.083 232.823ZM91.111 266.312L97.522 268.892 97.645 269.472 95.499 273.322 79.473 266.162 83.149 258.668 90.886 240.615 107.067 247.844 107.191 248.424 104.999 252.253 98.984 249.326 94.367 247.307 91.501 253.404 95.865 255.452 100.081 257.194 100.225 257.728 98.079 261.578 93.604 259.436 89.506 257.649 88.244 260.376 86.645 264.273ZM155.124 251.688L146.28 279.856 139.236 280 130.113 252.2 136.099 252.078 136.873 255.755 142.556 274.452 142.945 274.444 148.652 255.823 149.308 251.807ZM186.272 242.337L193.11 260.195 196.666 268.316 191.187 270.526 188.344 262.677 180.72 244.577ZM230.763 225.08C232.443 224.065 233.994 223.622 235.413 223.753 236.824 223.883 238.151 224.578 239.395 225.837V225.837C243.201 229.688 242.086 234.598 236.048 240.565V240.565C234.274 242.318 232.41 244.057 230.457 245.781V245.781L224.806 239.637 210.789 225.88 217.837 218.858C219.876 216.842 221.882 215.702 223.855 215.436 225.837 215.17 227.623 215.841 229.213 217.45V217.45C230.27 218.52 230.933 219.716 231.203 221.039 231.472 222.363 231.326 223.71 230.763 225.08ZM225.459 222.255C224.561 221.346 223.658 220.967 222.749 221.117 221.835 221.262 220.709 221.996 219.37 223.319V223.319L217.858 224.813 223.111 230.313 226.105 227.536C226.685 226.561 226.932 225.648 226.848 224.796 226.759 223.949 226.296 223.102 225.459 222.255ZM233.791 236.861C235.087 235.579 235.84 234.33 236.05 233.113 236.25 231.896 235.87 230.802 234.912 229.832V229.832C233.467 228.37 231.623 228.402 229.379 229.927V229.927L226.014 233.379 228.153 235.6 231.542 238.844C232.341 238.214 233.09 237.553 233.791 236.861ZM264.287 186.428L266.5 179.882 267.072 179.726 271.037 181.651 264.795 198.056 257.105 194.81 238.644 188.106 244.946 171.542 245.518 171.386 249.465 173.358 246.883 179.528 245.128 184.252 251.377 186.769 253.175 182.296 254.676 177.988 255.201 177.814 259.166 179.739 257.281 184.328 255.729 188.521 258.522 189.626 262.504 191.003Z" fill="#000000" data-fill-palette-color="primary"></path><path d="M8.607 85.527L9.175 85.357 13.191 87.141 11.203 92.006 10.627 93.644 24.224 98.654 32.659 101.349 30.697 106.921 22.94 103.862 8.711 99.084 8.134 100.722 6.606 105.844 6.025 106.052 2.022 104.23ZM54.758 58.712L59.204 53.435 59.794 53.499 62.774 56.733 50.98 69.707 45.022 63.873 30.305 50.912 42.213 37.813 42.802 37.877 45.748 41.149 41.095 45.941 37.742 49.703 42.625 54.317 45.933 50.811 48.905 47.349 49.458 47.393 52.438 50.628 49.019 54.196 46.041 57.531 48.223 59.581 51.426 62.318ZM95.739 31.608L101.929 28.558 102.443 28.853 103.875 33.012 87.866 40.163 84.75 32.429 76.47 14.652 92.633 7.432 93.147 7.726 94.533 11.905 88.348 14.428 83.767 16.529 86.388 22.714 90.825 20.83 94.936 18.851 95.425 19.114 96.857 23.272 92.294 25.168 88.228 27.028 89.404 29.782 91.24 33.574ZM155.834 0.513L145.842 28.255 138.818 28.111 130.842 0 136.828 0.123 137.45 3.829 142.353 22.714 142.752 22.722 149.197 4.369 150.017 0.394ZM199.499 12.427L192.032 29.999 188.96 38.304 183.491 36.097 186.896 28.486 193.947 10.186ZM236.682 56.469C237.717 58.138 238.178 59.679 238.064 61.09 237.949 62.502 237.27 63.838 236.026 65.096V65.096C232.224 68.942 227.309 67.886 221.282 61.928V61.928C219.512 60.179 217.754 58.338 216.007 56.405V56.405L222.085 50.697 235.65 36.534 242.746 43.493C244.781 45.504 245.942 47.495 246.231 49.464 246.515 51.438 245.865 53.227 244.279 54.831V54.831C243.222 55.9 242.038 56.577 240.728 56.862 239.407 57.148 238.059 57.017 236.682 56.469ZM239.446 51.147C240.339 50.244 240.708 49.336 240.552 48.424 240.391 47.517 239.642 46.402 238.303 45.078V45.078L236.791 43.584 231.36 48.894 234.172 51.855C235.158 52.419 236.077 52.653 236.928 52.559 237.774 52.46 238.613 51.989 239.446 51.147ZM224.952 59.635C226.248 60.916 227.506 61.65 228.725 61.836 229.94 62.026 231.027 61.637 231.986 60.667V60.667C233.426 59.21 233.373 57.371 231.827 55.15V55.15L228.35 51.825 226.147 53.983 222.942 57.41C223.586 58.206 224.256 58.947 224.952 59.635ZM253.665 105.161L256.358 111.514 256.034 112.011 251.802 113.204 245.57 96.816 253.468 94.144 271.686 86.885 277.978 103.432 277.654 103.928 273.404 105.075 271.236 98.757 269.398 94.064 263.075 96.33 264.704 100.867 266.446 105.084 266.157 105.557 261.924 106.75 260.289 102.087 258.663 97.923 255.847 98.94 251.957 100.558Z" fill="#000000" data-fill-palette-color="primary"></path><path d="M3.531 143.768C3.531 137.865 8.317 133.079 14.22 133.079 20.123 133.079 24.908 137.865 24.908 143.768 24.908 149.671 20.123 154.457 14.22 154.457 8.317 154.457 3.531 149.671 3.531 143.768ZM255.004 143.768C255.004 137.865 259.789 133.079 265.692 133.079 271.596 133.079 276.381 137.865 276.381 143.768 276.381 149.671 271.596 154.457 265.692 154.457 259.789 154.457 255.004 149.671 255.004 143.768Z" fill="#000000" data-fill-palette-color="primary"></path></g></svg></g></svg></g></svg></g></svg></g><defs></defs></svg><rect width="280" height="280" fill="none" stroke="none" visibility="hidden"></rect></g></svg></g></svg>